<?xml version="1.0" encoding="utf-8"?>
<svg xmlns="http://www.w3.org/2000/svg"
	xmlns:xlink="http://www.w3.org/1999/xlink"
	width="47px" height="44px" viewBox="0 0 47 44">
<path fillRule="evenodd" d="M 44.42 33.04C 44.42 33.04 18.24 33.04 18.24 33.04 15.19 33.04 12.52 31.09 11.59 28.2 11.59 28.2 4.38 5.84 4.38 5.84 4.35 5.75 4.26 5.68 4.15 5.68 4.15 5.68 2.58 5.68 2.58 5.68 1.24 5.68 0.15 4.59 0.15 3.25 0.15 1.91 1.24 0.82 2.58 0.82 2.58 0.82 4.15 0.82 4.15 0.82 6.37 0.82 8.32 2.24 9 4.35 9 4.35 16.21 26.71 16.21 26.71 16.49 27.59 17.31 28.18 18.24 28.18 18.24 28.18 44.42 28.18 44.42 28.18 45.76 28.18 46.85 29.27 46.85 30.61 46.85 31.95 45.76 33.04 44.42 33.04ZM 41.8 23.96C 41.62 24.7 40.96 25.23 40.19 25.23 40.19 25.23 19.89 25.23 19.89 25.23 19.17 25.23 18.53 24.76 18.31 24.08 18.31 24.08 13.32 8.47 13.32 8.47 13.06 7.66 13.2 6.77 13.7 6.08 14.2 5.4 15 4.99 15.85 4.99 15.85 4.99 42.97 4.99 42.97 4.99 43.79 4.99 44.56 5.37 45.06 6.01 45.57 6.65 45.75 7.49 45.56 8.28 45.56 8.28 41.8 23.96 41.8 23.96ZM 19.96 35.84C 22.09 35.84 23.83 37.57 23.83 39.71 23.83 41.85 22.09 43.58 19.96 43.58 17.82 43.58 16.09 41.85 16.09 39.71 16.09 37.57 17.82 35.84 19.96 35.84ZM 40.29 35.84C 42.42 35.84 44.16 37.57 44.16 39.71 44.16 41.85 42.42 43.58 40.29 43.58 38.15 43.58 36.42 41.85 36.42 39.71 36.42 37.57 38.15 35.84 40.29 35.84Z" fill="rgb(37,37,37)"/></svg>