<?xml version="1.0" encoding="utf-8"?>
<svg xmlns="http://www.w3.org/2000/svg"
	xmlns:xlink="http://www.w3.org/1999/xlink"
	width="55px" height="55px" viewBox="0 0 55 55">
<path fillRule="evenodd" d="M 54 15.9C 51.03 16.45 47.69 17.83 46.11 18.53 45.61 17.75 45.03 17.03 44.36 16.36 44.36 16.36 39.48 11.49 39.48 11.49 38.81 10.82 38.09 10.23 37.31 9.74 38.01 8.16 39.39 4.82 39.95 1.85 40.14 0.81 41.48 0.52 42.09 1.37 43.15 2.82 44.19 4.68 43.88 6.08 43.88 6.08 51.11 3.18 51.11 3.18 52.09 2.79 53.06 3.77 52.67 4.74 52.67 4.74 49.76 11.96 49.76 11.96 51.16 11.65 53.03 12.69 54.48 13.75 55.33 14.37 55.03 15.71 54 15.9ZM 42.73 17.99C 47.23 22.49 46.77 29.73 42.17 33.7 42.17 33.7 31.89 27.81 31.89 27.81 31.89 27.81 37.05 36.82 37.05 36.82 37.05 36.82 18.25 47.39 18.25 47.39 18.25 47.39 11.5 43.75 11.5 43.75 11.5 43.75 14.58 49.45 14.58 49.45 14.58 49.45 5.42 54.59 5.42 54.59 4.91 54.87 4.4 55 3.91 55 1.76 55 0.01 52.61 1.25 50.41 1.25 50.41 13.02 29.47 13.02 29.47 13.02 29.47 21.37 34.53 21.37 34.53 21.37 34.53 15.56 24.96 15.56 24.96 15.56 24.96 20.91 15.45 20.91 15.45 22.92 11.87 26.58 9.97 30.29 9.97 33 9.97 35.73 10.99 37.86 13.11 37.86 13.11 42.73 17.99 42.73 17.99Z" fill="rgb(37,37,37)"/></svg>