<?xml version="1.0" encoding="utf-8"?>
<svg xmlns="http://www.w3.org/2000/svg"
	xmlns:xlink="http://www.w3.org/1999/xlink"
	width="55px" height="49px" viewBox="0 0 55 49">
<path fillRule="evenodd" d="M 40.78 48.3C 38.62 44.59 35.42 42.9 31.2 42.92 28.8 42.94 26.4 42.84 24.01 42.95 21.9 43.05 19.94 42.73 18.09 41.69 17.22 41.2 16.24 41.04 15.28 40.82 12.94 40.29 10.67 39.59 8.33 39.01 5.05 38.2 4.27 37.73 1.85 36.77 1.45 36.62 0.97 36.74 0.78 36.25 0.6 35.78 0.57 35.29 0.91 34.89 1.5 34.19 2.09 33.86 3.14 33.92 3.22 33.92 3.32 33.92 3.38 33.88 5.27 32.82 5.27 33.54 7.19 33.7 7.19 33.7 12.61 34.39 12.61 34.39 13.56 34.32 20.72 36.06 21.13 35.24 18.91 35.24 16.33 33.51 16.65 33.09 17.21 32.35 18 32.02 18.95 32.02 21.16 32.03 23.33 32.1 25.5 32.75 27.12 33.24 28.8 33.16 30.49 32.49 33.24 31.38 36.2 31.02 38.8 32.71 42.01 34.8 45.05 37.15 47.37 40.3 50.07 43.97 51.38 44.81 54.33 48.27 54.33 48.27 40.78 48.3 40.78 48.3ZM 43.39 14.88C 43 15.29 42.59 15.84 42.15 16.45 41.28 17.64 40.12 18.92 38.6 19.84 37.84 20.3 37.03 20.71 36.17 20.99 35.32 21.29 34.44 21.48 33.62 21.58 32.88 21.67 31.2 21.89 30.68 21.87 31.08 21.26 31.5 20.64 31.98 20.07 32.3 19.64 32.67 19.27 33.02 18.89 33.37 18.5 33.77 18.18 34.13 17.84 34.51 17.53 34.9 17.26 35.27 16.99 35.67 16.77 36.05 16.56 36.39 16.37 36.76 16.24 37.1 16.11 37.41 16 37.7 15.86 37.99 15.86 38.22 15.8 38.68 15.72 38.94 15.67 38.94 15.67 38.94 15.67 38.68 15.7 38.21 15.75 37.98 15.79 37.69 15.77 37.38 15.89 37.06 15.98 36.7 16.08 36.31 16.2 35.94 16.37 35.55 16.55 35.12 16.74 34.73 16.99 34.3 17.24 33.88 17.53 33.49 17.85 33.05 18.15 32.66 18.52 32.28 18.89 31.86 19.25 31.51 19.65 31.09 20.11 30.7 20.57 30.32 21.04 30.32 20.97 30.31 20.9 30.31 20.83 30.3 20.14 30.44 19.27 30.73 18.36 31.04 17.46 31.53 16.54 32.18 15.7 32.83 14.84 33.68 14.09 34.63 13.49 35.59 12.89 36.66 12.44 37.79 12.23 38.91 12 40.08 12.01 41.1 12.24 42.12 12.47 42.98 12.93 43.47 13.39 43.72 13.59 43.88 13.85 43.98 13.99 44.07 14.15 44.12 14.24 44.12 14.24 44.12 14.24 44.04 14.29 43.9 14.39 43.77 14.49 43.58 14.7 43.39 14.88ZM 29.93 22.35C 29.77 22.61 29.63 22.87 29.49 23.12 34.81 23.99 39.19 27.64 41.11 32.53 40.76 32.29 40.41 32.06 40.08 31.84 37.38 30.08 34.05 29.94 30.25 31.46 28.93 31.99 27.63 32.07 26.36 31.68 23.95 30.95 21.56 30.89 19.31 30.88 17.81 30.88 16.57 31.48 15.71 32.61 15.5 32.89 15.38 33.22 15.35 33.57 14.19 33.36 13.52 33.25 13.07 33.25 13.07 33.25 12.71 33.21 12.71 33.21 14.44 28.1 18.81 24.22 24.19 23.2 24.09 23.02 24 22.86 23.9 22.68 23.75 22.44 23.45 21.8 23.49 21.64 23.51 21.55 23.5 21.46 23.51 21.37 23.13 20.9 22.74 20.43 22.32 19.98 21.96 19.57 21.55 19.22 21.16 18.85 20.77 18.48 20.33 18.18 19.94 17.86 19.52 17.57 19.1 17.32 18.71 17.07 18.28 16.88 17.88 16.69 17.51 16.52 17.12 16.41 16.77 16.3 16.45 16.21 16.14 16.1 15.85 16.12 15.61 16.08 15.15 16.03 14.88 16 14.88 16 14.88 16 15.15 16.05 15.61 16.13 15.83 16.19 16.12 16.19 16.42 16.32 16.72 16.44 17.06 16.56 17.44 16.7 17.78 16.89 18.16 17.1 18.55 17.32 18.92 17.59 19.31 17.86 19.7 18.17 20.06 18.51 20.46 18.83 20.81 19.21 21.15 19.6 21.53 19.97 21.84 20.39 22.32 20.97 22.75 21.58 23.14 22.2 22.63 22.22 20.95 22 20.21 21.91 19.39 21.81 18.51 21.62 17.66 21.32 16.8 21.04 15.98 20.63 15.23 20.17 13.71 19.24 12.55 17.97 11.67 16.78 11.23 16.17 10.83 15.62 10.43 15.21 10.25 15.03 10.06 14.82 9.92 14.72 9.78 14.62 9.71 14.56 9.71 14.56 9.71 14.56 9.76 14.48 9.85 14.32 9.94 14.18 10.1 13.92 10.35 13.72 10.84 13.26 11.71 12.8 12.73 12.56 13.75 12.33 14.92 12.33 16.03 12.56 17.17 12.77 18.24 13.22 19.2 13.82 20.15 14.42 21 15.17 21.64 16.03 22.3 16.86 22.79 17.79 23.09 18.69 23.39 19.6 23.53 20.47 23.52 21.15 23.52 21.23 23.51 21.3 23.51 21.37 23.97 21.95 24.38 22.53 24.76 23.09 25.5 22.98 26.26 22.92 27.04 22.92 27.13 22.92 27.22 22.94 27.31 22.94 27.42 22.44 27.52 21.93 27.62 21.4 27.68 21.03 27.94 20.13 28.11 20.01 28.21 19.93 28.28 19.84 28.37 19.75 28.32 20.89 28.2 21.98 28.06 23 28.33 23.02 28.6 23.03 28.86 23.06 29.29 22.41 29.78 21.72 30.32 21.04 30.32 21.13 30.32 21.22 30.34 21.32 30.38 21.47 30.08 22.11 29.93 22.35ZM 30.28 16.73C 29.79 17.89 29.17 18.87 28.57 19.55 28.51 19.63 28.43 19.68 28.37 19.75 28.4 18.96 28.42 18.15 28.39 17.34 28.39 16.62 28.29 15.91 28.23 15.2 28.16 14.5 27.99 13.82 27.88 13.16 27.71 12.51 27.5 11.89 27.33 11.3 27.07 10.74 26.84 10.21 26.62 9.72 26.33 9.27 26.07 8.86 25.83 8.49 25.62 8.11 25.31 7.87 25.11 7.63 24.7 7.17 24.45 6.92 24.45 6.92 24.45 6.92 24.68 7.19 25.06 7.68 25.23 7.93 25.53 8.18 25.7 8.57 25.91 8.95 26.14 9.37 26.39 9.83 26.56 10.33 26.76 10.86 26.96 11.42 27.09 12.01 27.25 12.62 27.36 13.26 27.42 13.91 27.55 14.58 27.56 15.26 27.57 15.95 27.62 16.64 27.56 17.34 27.54 18.33 27.42 19.31 27.28 20.26 26.75 19.84 25.27 18.15 24.62 17.43 23.89 16.61 23.18 15.65 22.6 14.62 21.98 13.59 21.53 12.48 21.18 11.36 20.47 9.12 20.43 6.84 20.59 4.9 20.68 3.91 20.76 3 20.73 2.25 20.69 1.91 20.69 1.54 20.64 1.33 20.59 1.1 20.56 0.98 20.56 0.98 20.56 0.98 20.68 0.94 20.91 0.87 21.13 0.81 21.51 0.69 21.94 0.7 22.82 0.67 24.08 0.96 25.3 1.62 26.52 2.28 27.68 3.29 28.6 4.49 29.54 5.68 30.21 7.07 30.65 8.49 31.07 9.92 31.27 11.4 31.16 12.81 31.09 14.22 30.77 15.57 30.28 16.73Z" fill="rgb(37,37,37)"/></svg>